<?xml version="1.0" standalone="no"?>
<!DOCTYPE svg PUBLIC "-//W3C//DTD SVG 20010904//EN"
 "http://www.w3.org/TR/2001/REC-SVG-20010904/DTD/svg10.dtd">
<svg version="1.0" xmlns="http://www.w3.org/2000/svg"
 width="880.000000pt" height="880.000000pt" viewBox="0 0 880.000000 880.000000"
 preserveAspectRatio="xMidYMid meet">
<metadata>
Created by potrace 1.14, written by Peter Selinger 2001-2017
</metadata>
<g transform="translate(0.000000,880.000000) scale(0.100000,-0.100000)"
fill="#000000" stroke="none">
<path d="M4103 8609 c-80 -17 -199 -55 -308 -99 -27 -11 -38 -9 -115 28 -98
46 -184 67 -244 58 -50 -8 -152 -54 -202 -93 -31 -23 -114 -131 -114 -148 0
-3 -9 -24 -20 -48 -45 -96 -66 -271 -46 -381 6 -34 3 -43 -42 -104 -267 -365
-495 -862 -662 -1444 -43 -152 -51 -171 -92 -220 -267 -316 -477 -692 -568
-1016 -25 -88 -28 -111 -20 -142 12 -43 8 -41 212 -123 75 -31 154 -65 175
-75 l38 -20 1 -324 c1 -331 4 -404 30 -708 37 -429 129 -933 241 -1310 33
-112 106 -331 132 -399 12 -30 20 -60 17 -68 -3 -8 -2 -12 3 -9 12 8 44 -81
35 -95 -4 -8 -3 -9 4 -5 11 6 14 0 11 -20 0 -4 3 -10 8 -13 15 -11 43 -82 37
-93 -4 -7 -2 -8 4 -4 11 6 17 -12 13 -36 0 -5 3 -8 8 -8 9 0 27 -40 22 -49 -2
-2 1 -7 6 -10 12 -8 54 -91 47 -91 -3 0 2 -7 10 -16 9 -8 14 -19 11 -24 -3 -5
-2 -10 3 -12 15 -6 52 -80 46 -90 -4 -6 -2 -8 3 -5 13 8 26 -20 16 -35 -3 -7
-1 -8 5 -4 6 3 16 -3 22 -14 6 -11 8 -20 5 -20 -3 0 4 -10 15 -22 11 -12 18
-28 15 -36 -2 -7 -1 -10 5 -7 8 5 42 -46 40 -61 -1 -3 6 -11 16 -18 11 -8 14
-18 9 -26 -5 -9 -4 -11 4 -6 6 4 14 0 18 -11 4 -10 12 -23 17 -30 38 -44 39
-45 26 -53 -9 -5 -9 -9 -1 -14 6 -4 11 -2 11 4 0 6 5 8 11 5 6 -4 8 -14 5 -22
-3 -8 -2 -11 4 -8 5 3 14 -3 20 -14 6 -11 21 -32 35 -47 14 -15 22 -31 18 -37
-3 -6 -1 -7 5 -3 6 4 19 -6 29 -21 10 -15 26 -34 36 -42 10 -7 16 -19 13 -27
-3 -8 -2 -13 2 -12 13 4 50 -35 45 -47 -2 -7 0 -16 6 -20 7 -3 8 0 5 9 -3 9
-1 16 5 16 6 0 11 -4 11 -10 0 -5 21 -30 47 -56 27 -26 48 -50 48 -55 0 -4 4
-11 9 -16 5 -5 6 -3 2 4 -14 24 6 13 41 -25 20 -20 33 -30 28 -22 -7 12 -6 13
6 2 11 -11 12 -14 1 -21 -11 -7 -10 -10 3 -14 9 -4 13 -3 10 3 -10 17 7 11 22
-7 9 -11 11 -12 7 -3 -4 8 5 3 20 -12 16 -15 33 -25 40 -21 6 4 4 -1 -4 -12
-14 -16 -13 -17 7 -11 24 8 57 -19 46 -37 -4 -7 1 -6 10 2 14 11 18 11 23 -3
3 -9 11 -13 17 -9 6 4 8 0 5 -9 -5 -11 0 -14 18 -10 14 2 24 0 24 -7 0 -7 -4
-9 -10 -6 -5 3 -10 1 -10 -5 0 -7 8 -9 19 -5 12 4 21 0 25 -11 5 -14 9 -14 23
-3 9 8 14 9 11 4 -4 -6 -4 -15 0 -21 10 -14 66 -48 58 -36 -4 6 2 10 14 9 12
-1 18 -7 16 -14 -7 -16 11 -27 20 -12 5 8 3 9 -7 4 -8 -5 -10 -4 -6 0 13 15
38 14 44 -1 3 -8 9 -14 15 -14 5 0 6 5 2 12 -4 7 -3 8 5 4 6 -4 9 -11 6 -16
-3 -4 5 -8 18 -9 43 -1 54 -4 53 -17 -1 -7 2 -13 7 -13 30 -3 37 0 31 12 -5 8
-2 8 9 -2 18 -15 23 -26 7 -16 -5 3 -10 1 -10 -5 0 -7 8 -9 21 -5 14 5 19 3
15 -3 -8 -14 37 -2 46 12 6 8 8 8 8 0 0 -6 12 -25 28 -42 15 -17 47 -58 72
-91 54 -72 112 -107 154 -92 14 6 26 8 26 6 0 -13 47 38 91 98 30 40 54 65 61
61 7 -4 8 -3 4 5 -4 6 -2 18 4 26 15 17 30 20 30 4 0 -5 -4 -8 -9 -4 -5 3 -13
0 -17 -6 -4 -7 -3 -9 4 -5 5 3 13 0 15 -6 4 -10 6 -10 6 0 1 7 6 10 13 6 6 -4
8 -3 5 3 -4 6 0 14 9 17 14 5 14 9 3 24 -13 15 -12 16 3 3 10 -7 16 -17 13
-21 -3 -5 -1 -11 5 -15 5 -3 10 1 10 9 0 8 5 18 12 22 6 4 8 3 5 -3 -8 -14 70
-8 87 6 7 6 15 8 19 5 3 -3 14 -1 25 5 15 8 22 8 25 -2 3 -7 6 -5 6 6 1 9 7
16 14 15 6 -2 11 2 10 9 -2 7 4 10 15 7 16 -5 15 -4 -1 9 -17 14 -17 15 6 13
14 0 24 -5 22 -11 -1 -5 0 -7 2 -2 3 4 9 5 13 2 5 -3 12 0 16 6 4 8 3 9 -4 5
-7 -4 -12 -2 -12 5 0 7 11 10 30 7 17 -3 33 -1 36 4 3 5 9 6 14 3 4 -3 7 3 5
12 -2 10 -4 22 -4 26 -1 5 -7 5 -13 1 -7 -4 -9 -3 -5 1 9 11 39 16 33 6 -3 -4
-1 -13 5 -21 7 -13 9 -12 9 3 0 9 4 17 10 17 5 0 8 -6 6 -12 -1 -7 -1 -10 1
-5 3 4 9 5 13 2 5 -3 7 6 4 19 -3 20 -1 23 16 19 11 -3 20 -13 21 -22 0 -12 2
-11 8 4 5 11 6 27 3 35 -5 13 -4 13 13 0 17 -14 17 -14 7 6 -7 13 -7 25 -1 35
8 11 9 10 7 -5 -2 -10 3 -21 11 -24 8 -3 11 0 7 7 -4 6 -1 11 8 11 19 0 20 11
4 30 -7 8 -2 6 11 -5 14 -11 21 -14 17 -7 -4 7 -1 12 9 12 10 0 14 5 10 12 -4
7 1 4 10 -7 16 -19 16 -19 13 -1 -2 10 3 21 11 24 9 3 11 0 6 -9 -5 -8 -4 -11
1 -6 9 8 10 12 13 38 0 6 10 9 22 6 15 -4 18 -3 9 7 -8 10 -5 13 13 11 15 -2
24 2 24 11 0 10 -4 11 -14 2 -10 -8 -12 -7 -8 5 4 8 16 17 27 21 18 4 19 7 8
20 -8 11 -9 16 -1 16 6 0 11 -4 11 -9 0 -13 27 -21 28 -8 1 22 11 60 17 65 11
11 46 12 40 1 -4 -6 -13 -8 -20 -5 -7 2 -16 -1 -19 -9 -5 -13 22 -30 32 -20 3
3 -1 5 -8 5 -7 0 0 10 16 22 35 26 54 44 38 35 -7 -4 -15 0 -18 9 -5 12 -2 15
10 10 12 -5 15 -2 10 9 -3 9 -2 13 4 10 9 -6 14 8 11 28 -1 5 3 6 9 2 5 -3 11
-1 11 4 1 6 2 17 3 24 1 6 10 11 20 9 12 -2 16 1 10 9 -4 8 -3 10 5 5 7 -5 1
-17 -19 -38 -17 -17 -28 -33 -25 -36 3 -4 17 8 31 26 14 18 30 30 35 27 10 -7
1 24 -13 42 -6 7 -4 14 3 19 7 4 9 3 5 -4 -7 -11 31 -28 41 -18 4 3 2 6 -4 6
-6 0 -14 7 -17 16 -5 13 -4 14 7 6 18 -15 30 -3 16 14 -8 10 -6 12 10 9 11 -2
24 1 27 7 4 7 2 8 -4 4 -7 -4 -12 -2 -12 3 0 6 6 11 14 11 8 0 13 8 12 17 0
11 6 18 16 17 14 -1 15 3 7 23 -11 31 -11 33 2 33 5 0 7 -4 4 -10 -3 -5 -1
-10 5 -10 6 0 8 -6 4 -12 -5 -10 -4 -10 5 -2 10 10 10 17 0 35 l-12 24 24 -20
c13 -11 21 -16 17 -11 -10 13 11 48 24 40 6 -4 8 -3 5 3 -4 6 6 25 22 42 16
17 25 31 19 31 -5 0 -6 5 -2 12 4 7 3 8 -4 4 -7 -4 -12 -2 -12 3 0 6 9 11 21
11 11 0 17 5 14 10 -4 6 -11 7 -17 4 -6 -4 -3 5 8 19 10 15 23 27 28 27 5 0 1
-8 -8 -19 -15 -17 -15 -19 -1 -25 10 -3 14 -2 10 5 -4 5 -1 17 6 26 11 13 10
17 -6 29 -22 16 -12 19 16 4 15 -8 19 -8 17 2 -2 7 3 12 10 10 6 -1 11 1 11 5
-1 5 0 11 1 16 4 12 7 26 9 38 0 5 5 8 9 5 5 -3 9 1 9 9 0 10 -4 12 -12 5 -6
-5 -16 -5 -25 1 -12 8 -11 9 5 7 11 -2 20 2 20 9 0 6 3 15 7 19 4 4 2 14 -4
22 -7 8 4 5 27 -7 l40 -22 -29 26 -28 26 28 -6 c21 -5 25 -4 15 3 -13 9 -13
13 0 28 11 13 11 18 2 21 -7 3 -13 9 -13 14 0 6 6 7 13 2 25 -15 34 -11 29 15
-3 16 -1 23 5 19 6 -4 17 1 24 10 10 12 10 14 2 9 -7 -4 -13 -2 -13 3 0 6 -8
11 -17 12 -14 0 -15 2 -3 6 8 3 21 13 28 21 11 14 15 15 35 3 20 -13 21 -13 9
1 -10 13 -10 17 0 22 7 3 -3 3 -22 0 -26 -3 -31 -2 -20 6 8 5 24 10 35 10 11
0 15 4 10 8 -15 10 -13 28 4 44 12 11 13 10 6 -2 -6 -12 -5 -12 5 -3 16 15 4
34 -18 27 -15 -5 -15 -4 1 6 9 6 15 17 11 23 -3 7 4 1 16 -13 13 -15 21 -19
20 -10 -4 26 0 41 8 36 4 -2 8 3 9 12 1 10 2 22 3 27 4 20 0 36 -8 31 -5 -3
-9 1 -9 9 0 10 4 12 12 5 15 -12 25 -3 25 22 0 12 4 16 11 12 6 -3 3 6 -7 22
-11 16 -13 25 -6 20 9 -5 12 -3 10 5 -1 8 2 14 7 14 6 0 9 -3 8 -7 -2 -5 -4
-11 -5 -15 -2 -5 0 -9 5 -10 4 -2 6 -2 5 0 -1 1 4 13 11 26 7 13 8 21 3 17 -6
-4 -10 2 -9 14 1 19 3 19 27 3 l25 -16 -25 28 -25 27 25 -6 c24 -7 24 -6 -2 9
-31 17 -37 28 -11 18 10 -4 14 -2 9 5 -3 6 -2 13 3 17 6 3 8 -3 6 -15 -2 -11
0 -20 5 -20 5 0 8 12 6 27 -1 16 4 33 12 38 7 6 14 18 16 27 1 10 10 26 21 38
10 11 15 20 12 20 -3 0 -15 -9 -26 -21 -14 -15 -21 -17 -26 -8 -5 8 -4 10 3 5
11 -7 15 4 15 46 0 10 5 14 14 11 12 -5 12 -7 1 -15 -11 -8 -11 -9 0 -6 8 2
13 7 12 12 -1 5 4 12 10 16 8 5 7 9 -5 13 -9 4 -13 3 -10 -3 10 -16 -1 -12
-15 6 -11 12 -11 15 0 12 8 -2 15 3 16 10 1 6 2 17 3 22 0 6 6 10 12 10 6 0 7
-5 2 -12 -10 -17 -14 -42 -5 -33 4 4 8 11 8 16 3 22 5 23 14 9 6 -10 7 -3 3
24 -5 31 -3 37 7 31 8 -5 11 -4 6 3 -4 6 -14 9 -24 6 -15 -5 -15 -5 1 6 9 6
22 8 27 5 6 -4 7 1 3 11 -5 12 -3 15 6 9 10 -6 11 -3 2 14 -7 11 -17 21 -23
21 -7 0 -3 6 7 14 11 8 26 12 35 9 12 -4 12 -3 1 5 -16 11 -5 36 11 26 7 -5 8
-2 2 7 -9 14 -10 19 -13 40 -1 8 -7 7 -18 -2 -16 -13 -17 -12 -4 3 7 10 17 15
22 12 5 -3 9 -1 9 5 0 5 3 18 6 28 5 16 4 16 -10 -1 -9 -11 -16 -15 -16 -9 0
6 7 16 15 23 12 10 13 16 3 29 -12 14 -11 14 5 2 19 -15 24 -2 6 16 -9 9 -6
11 12 7 18 -4 20 -3 10 4 -8 6 -15 19 -16 30 -1 15 4 19 22 17 18 -2 21 0 12
11 -6 8 -16 11 -22 7 -6 -3 -7 -1 -3 5 5 9 13 9 29 0 20 -10 21 -9 9 5 -11 13
-10 17 5 27 15 9 15 11 1 6 -9 -2 -19 2 -22 10 -3 9 -1 12 4 9 6 -3 10 -1 10
5 0 7 7 9 16 6 9 -3 12 -2 9 5 -4 6 -14 8 -22 5 -8 -3 -12 -2 -8 3 3 5 -1 12
-7 14 -10 4 -10 6 0 6 7 1 10 5 7 11 -3 6 1 7 10 3 13 -5 14 -7 3 -14 -9 -6
-9 -9 -1 -9 23 0 23 19 1 35 -23 17 -23 17 -1 11 18 -6 20 -4 16 14 -3 11 -9
23 -14 26 -21 12 -7 24 24 20 28 -5 30 -4 10 6 -12 6 -24 17 -27 25 -3 8 -1
11 4 8 6 -3 10 -1 10 4 0 6 5 11 11 11 8 0 8 -5 -1 -15 -9 -10 -9 -15 -1 -15
6 0 11 3 12 8 0 4 2 15 4 25 2 9 0 15 -5 12 -14 -9 -18 20 -6 38 10 13 16 14
27 4 7 -7 5 -1 -6 12 -16 19 -17 23 -4 19 9 -4 16 -1 16 8 0 7 -5 11 -10 7 -5
-3 -6 4 -2 18 7 22 7 23 -11 9 -10 -8 -7 -1 7 15 15 17 24 36 21 44 -2 8 0 11
6 7 12 -7 11 12 -2 32 -5 9 -1 18 10 27 18 13 18 13 0 12 -11 -1 -20 5 -21 16
-2 9 1 15 6 11 5 -3 6 -11 2 -17 -5 -8 -2 -8 9 0 8 7 19 9 23 5 5 -4 5 -1 1 6
-4 7 -12 10 -17 7 -5 -4 -9 -1 -9 4 0 6 6 11 13 11 7 0 3 8 -8 17 -20 15 -20
15 2 10 22 -5 22 -4 5 21 -9 15 -11 23 -4 19 8 -5 12 -2 12 8 0 9 4 14 9 10 5
-3 13 0 17 6 5 8 3 9 -5 5 -8 -5 -14 0 -18 13 -3 12 -10 18 -17 14 -6 -4 -5 1
3 10 8 10 11 20 8 24 -4 3 -2 12 4 20 9 10 8 17 -2 30 -10 11 -10 14 -1 9 7
-4 12 -2 12 4 0 6 5 8 10 5 15 -9 12 4 -5 21 -8 9 -15 20 -15 27 0 6 6 3 13
-6 11 -16 13 -16 25 4 8 12 9 18 3 14 -6 -3 -11 -1 -11 5 0 6 -6 8 -12 4 -8
-4 -10 -3 -5 2 5 5 14 9 20 9 19 0 14 49 -6 63 -14 11 -15 17 -7 27 7 8 8 20
4 26 -4 7 -3 9 3 6 5 -3 20 8 33 26 l23 32 -26 -24 c-15 -14 -27 -19 -27 -13
0 6 6 17 14 24 11 11 11 15 -3 25 -14 10 -12 11 9 7 l25 -5 -25 15 c-14 8 -20
15 -15 16 6 0 11 9 11 20 0 11 -5 20 -11 20 -5 0 -2 5 8 11 9 6 14 15 11 21
-5 7 -1 9 9 5 11 -4 14 -2 11 8 -3 8 -13 11 -22 8 -13 -4 -12 -2 3 11 11 10
13 14 5 10 -8 -4 -12 -4 -8 1 4 4 2 15 -5 23 -9 12 -9 14 0 9 7 -5 16 1 22 12
14 25 14 31 0 31 -5 0 -8 -4 -4 -9 3 -5 0 -13 -6 -17 -9 -5 -10 1 -5 20 5 20
4 26 -5 20 -8 -4 -9 -3 -5 5 6 9 11 9 22 0 8 -6 17 -9 21 -5 3 3 1 6 -5 6 -7
0 -12 7 -12 16 0 9 -5 12 -12 8 -7 -4 -8 -3 -4 4 4 7 13 12 21 12 8 0 16 4 20
9 3 6 -7 8 -22 6 -16 -2 -22 -2 -15 1 6 3 12 20 12 38 0 18 5 37 11 43 8 8 7
13 -2 18 -8 6 -10 4 -4 -6 8 -12 6 -12 -9 0 -11 9 -14 17 -7 24 7 7 16 5 27
-4 16 -13 16 -12 7 6 -6 11 -8 27 -6 35 3 10 0 9 -7 -2 -6 -10 -16 -18 -22
-18 -6 0 2 12 18 27 24 22 25 26 9 21 -15 -4 -21 0 -21 13 0 12 4 15 11 9 7
-6 11 -2 12 12 1 12 -6 28 -15 36 -16 13 -16 13 0 8 10 -3 20 0 24 6 4 7 3 8
-4 4 -7 -4 -12 -2 -12 4 0 6 -4 9 -9 6 -11 -7 -6 37 7 60 7 13 6 27 -5 47 -10
20 -11 27 -2 21 8 -5 11 -2 6 8 -3 9 0 21 6 28 9 10 9 12 -4 7 -12 -4 -15 0
-11 19 2 13 8 24 13 24 5 0 6 -7 3 -15 -4 -8 -1 -15 7 -15 7 0 9 3 6 7 -4 3
-2 12 5 20 6 8 7 13 2 11 -5 -2 -11 2 -12 7 -2 6 -8 18 -14 28 -6 13 -5 23 4
35 11 13 11 15 -4 10 -15 -6 -16 -4 -9 31 1 2 8 -2 16 -9 9 -7 18 -10 22 -6 3
3 2 6 -4 6 -15 0 -36 51 -37 90 -1 19 -5 41 -10 49 -6 10 -6 12 2 7 7 -4 12
-2 12 4 0 10 138 79 220 109 191 72 211 92 189 184 -31 131 -133 400 -195 513
-14 27 -42 78 -62 114 -31 57 -151 247 -174 275 -4 5 -38 51 -75 100 -37 50
-70 92 -73 95 -3 3 -14 15 -24 28 -19 22 -19 22 -1 16 13 -5 16 -4 11 4 -4 7
-14 12 -23 12 -14 0 -13 3 3 21 10 11 14 20 9 19 -20 -4 -35 0 -35 10 0 6 3 9
8 8 4 -2 7 2 7 7 0 6 -5 9 -13 7 -11 -3 -11 1 -2 18 11 21 5 44 -10 35 -5 -3
-11 -1 -15 5 -3 5 -1 10 5 10 11 0 9 44 -3 56 -3 3 -4 -6 -1 -22 3 -20 2 -25
-5 -15 -5 8 -8 24 -6 37 1 13 -2 24 -8 24 -5 0 -3 8 4 18 7 9 9 14 5 10 -14
-12 -36 25 -25 39 7 7 6 14 -2 19 -8 5 -9 3 -4 -6 5 -8 4 -11 -3 -6 -6 3 -9
18 -6 32 3 14 1 23 -4 20 -5 -3 -9 1 -10 9 -1 8 -3 22 -4 30 -1 8 -5 15 -10
15 -4 0 -8 5 -8 11 0 5 4 8 9 5 11 -7 8 21 -4 31 -4 4 -5 2 -1 -4 4 -7 4 -13
1 -13 -3 0 -12 15 -20 33 -10 24 -11 35 -2 46 9 11 9 13 0 8 -14 -9 -28 27
-17 44 4 7 3 9 -4 5 -6 -3 -13 -2 -17 4 -3 5 -1 10 4 10 6 0 11 5 11 11 0 5
-5 7 -12 3 -8 -5 -9 0 -5 15 3 14 0 24 -8 27 -8 3 -19 22 -26 42 -6 21 -16 43
-22 50 -5 6 -6 12 -2 12 4 0 2 7 -5 15 -11 13 -10 15 1 12 8 -2 11 -2 7 0 -5
3 -8 13 -8 23 0 10 -4 21 -9 24 -5 4 -7 -4 -5 -16 4 -23 4 -23 -6 0 -5 13 -8
28 -4 33 3 5 1 9 -4 9 -6 0 -13 7 -16 16 -5 13 -4 14 7 6 10 -9 14 -8 14 3 0
7 -3 14 -6 13 -19 -2 -30 4 -35 18 -5 12 -3 14 7 8 7 -5 4 -1 -6 9 -13 12 -15
17 -6 17 10 1 9 4 -3 11 -11 6 -15 16 -11 26 4 11 3 14 -5 9 -8 -5 -12 2 -12
19 0 14 -3 24 -8 21 -4 -2 -12 7 -19 20 -6 13 -7 22 -2 18 5 -3 6 2 3 10 -3 9
-10 14 -14 11 -4 -3 -11 2 -14 11 -10 25 -7 36 7 28 8 -5 8 -2 -2 9 -15 18
-26 23 -16 7 3 -5 4 -10 1 -10 -3 0 -10 10 -17 21 -9 17 -8 20 3 13 13 -8 -19
35 -37 49 -6 4 -4 11 5 17 12 8 12 10 -5 10 -17 0 -17 2 -5 10 13 8 13 10 -1
10 -15 0 -29 19 -28 36 0 3 -8 12 -18 21 -10 8 -13 12 -7 9 6 -3 11 1 11 8 0
8 -6 12 -14 9 -7 -3 -13 1 -13 10 0 8 -7 20 -15 27 -8 7 -12 16 -9 21 3 5 1 9
-3 9 -5 0 -17 17 -28 38 -11 20 -25 42 -31 47 -20 18 -54 82 -47 88 3 4 -2 7
-12 7 -10 0 -16 3 -13 6 3 3 -5 16 -19 30 -13 13 -21 29 -18 34 4 6 1 9 -7 8
-7 -2 -12 5 -12 15 1 9 -2 17 -6 17 -4 0 -4 19 0 42 17 89 -13 264 -60 360
-79 158 -173 243 -307 274 -68 16 -150 0 -257 -50 l-76 -34 -92 37 c-188 77
-313 101 -513 100 -98 0 -168 -6 -232 -20z m2277 -2289 c0 -5 -5 -10 -11 -10
-5 0 -7 5 -4 10 3 6 8 10 11 10 2 0 4 -4 4 -10z m235 -1789 c3 -5 2 -12 -3
-15 -5 -3 -9 1 -9 9 0 17 3 19 12 6z m0 -160 c3 -5 2 -12 -3 -15 -5 -3 -9 1
-9 9 0 17 3 19 12 6z m-39 -835 c1 -10 -4 -12 -14 -8 -11 4 -12 7 -4 10 10 3
10 7 0 20 -10 14 -10 15 2 5 8 -7 15 -19 16 -27z m-46 -236 c0 -5 -5 -10 -11
-10 -5 0 -7 5 -4 10 3 6 8 10 11 10 2 0 4 -4 4 -10z m-19 -184 c15 9 10 -3 -8
-17 -11 -10 -14 -10 -9 -1 4 7 2 12 -4 12 -6 0 -8 5 -4 12 6 9 9 9 12 0 2 -7
8 -10 13 -6z m-101 -436 c0 -5 -5 -10 -11 -10 -5 0 -7 5 -4 10 3 6 8 10 11 10
2 0 4 -4 4 -10z m-54 -244 c-3 -19 -26 -46 -39 -46 -6 0 -2 7 9 15 10 8 15 15
10 15 -5 0 -3 7 4 15 15 19 19 19 16 1z m-26 -96 c0 -5 -10 -15 -22 -21 l-23
-12 20 21 c23 24 25 25 25 12z m-30 -64 c0 -2 -7 -7 -16 -10 -8 -3 -12 -2 -9
4 6 10 25 14 25 6z m-59 -190 c14 8 11 -2 -4 -14 -10 -8 -13 -6 -14 11 0 12 1
16 4 9 3 -6 9 -10 14 -6z m-121 -312 c-6 -6 -8 -13 -5 -16 3 -3 -1 -11 -9 -17
-11 -9 -16 -9 -22 0 -4 7 -3 9 3 6 6 -4 13 2 16 13 3 10 0 21 -7 24 -6 2 -1 3
11 3 15 -1 19 -5 13 -13z m-234 -467 c0 -7 -8 -21 -19 -32 -19 -20 -19 -20 -4
11 9 17 14 34 12 38 -3 3 -2 4 2 1 4 -3 8 -11 9 -18z m-104 -179 c-6 -6 -22
-13 -34 -15 -18 -2 -19 -1 -8 6 8 5 18 7 22 5 4 -3 8 0 8 5 0 6 5 11 12 11 9
0 9 -3 0 -12z m-44 -55 c-12 -13 -24 -20 -27 -17 -3 4 0 9 7 11 9 3 10 9 3 17
-7 9 -4 12 14 12 l25 0 -22 -23z m-72 -75 c4 -7 3 -8 -4 -4 -7 4 -12 2 -12 -5
0 -7 -3 -10 -6 -6 -6 5 3 27 11 27 2 0 7 -5 11 -12z m-32 -36 c3 -5 -1 -9 -9
-9 -8 0 -12 4 -9 9 3 4 7 8 9 8 2 0 6 -4 9 -8z m-44 -42 c0 -5 -5 -10 -11 -10
-5 0 -7 5 -4 10 3 6 8 10 11 10 2 0 4 -4 4 -10z m-140 -200 c0 -5 -2 -10 -4
-10 -3 0 -8 5 -11 10 -3 6 -1 10 4 10 6 0 11 -4 11 -10z m-82 -65 c-3 -3 -9 2
-12 12 -6 14 -5 15 5 6 7 -7 10 -15 7 -18z m-73 -55 c-3 -5 -12 -10 -18 -10
-7 0 -6 4 3 10 19 12 23 12 15 0z m-55 -60 c-18 -12 -30 -13 -30 -2 0 4 10 9
22 9 18 2 20 0 8 -7z m-145 -94 c0 -14 -5 -22 -12 -19 -14 6 -13 24 2 35 6 4
10 8 10 8 0 0 0 -11 0 -24z m-112 -69 c4 3 7 4 7 1 0 -3 -8 -12 -17 -19 -10
-7 -15 -9 -11 -5 4 5 2 16 -5 25 -10 14 -10 14 4 4 9 -7 19 -10 22 -6z m-1193
-3 c0 -8 -19 -13 -24 -6 -3 5 1 9 9 9 8 0 15 -2 15 -3z m1054 -61 c4 -10 4
-14 0 -11 -4 4 -16 3 -26 -3 -15 -8 -23 -8 -32 1 -8 8 -6 9 8 4 13 -5 17 -4
12 4 -5 8 -2 10 8 6 9 -3 16 -1 16 5 0 16 7 13 14 -6z m-77 0 c-4 -3 -2 -12 5
-20 8 -11 7 -12 -6 -7 -9 3 -16 9 -16 13 0 9 11 21 18 21 3 0 2 -3 -1 -7z
m-23 -32 c3 -5 -1 -12 -10 -15 -9 -4 -13 -2 -8 5 4 8 -1 9 -17 4 -19 -5 -21
-4 -9 4 18 13 37 14 44 2z m-659 -11 c3 -6 -1 -7 -9 -4 -18 7 -21 14 -7 14 6
0 13 -4 16 -10z"/>
<path d="M6189 6923 c-13 -16 -12 -17 4 -4 9 7 17 15 17 17 0 8 -8 3 -21 -13z"/>
<path d="M6260 6680 c0 -6 7 -10 15 -10 8 0 15 2 15 4 0 2 -7 6 -15 10 -8 3
-15 1 -15 -4z"/>
<path d="M6296 6602 c-2 -4 -1 -14 4 -22 7 -11 9 -9 7 8 -1 24 -3 26 -11 14z"/>
<path d="M6326 6478 c3 -5 10 -6 15 -3 13 9 11 12 -6 12 -8 0 -12 -4 -9 -9z"/>
<path d="M6613 4675 c0 -8 4 -12 9 -9 4 3 8 9 8 15 0 5 -4 9 -8 9 -5 0 -9 -7
-9 -15z"/>
<path d="M6635 4659 c-4 -6 -5 -12 -2 -15 2 -3 7 2 10 11 7 17 1 20 -8 4z"/>
<path d="M6620 4563 c0 -6 8 -17 18 -24 16 -13 16 -13 2 6 -8 11 -16 22 -17
24 -2 2 -3 0 -3 -6z"/>
<path d="M6620 4401 c0 -6 4 -13 10 -16 6 -3 7 1 4 9 -7 18 -14 21 -14 7z"/>
<path d="M6624 4332 c-12 -19 -8 -42 8 -42 7 0 6 5 -1 14 -10 11 -9 16 5 24 9
5 12 12 7 15 -5 3 -14 -2 -19 -11z"/>
<path d="M6610 3880 c-9 -6 -10 -10 -3 -10 6 0 15 5 18 10 8 12 4 12 -15 0z"/>
<path d="M6598 3783 c7 -3 16 -2 19 1 4 3 -2 6 -13 5 -11 0 -14 -3 -6 -6z"/>
<path d="M6590 3759 c0 -5 5 -7 10 -4 6 3 10 8 10 11 0 2 -4 4 -10 4 -5 0 -10
-5 -10 -11z"/>
<path d="M6577 3616 c-9 -23 -7 -30 8 -32 8 -1 18 2 21 7 3 5 2 9 -3 8 -21 -4
-25 2 -9 14 16 12 16 14 3 14 -9 0 -18 -5 -20 -11z"/>
<path d="M6555 3410 c3 -5 8 -10 11 -10 2 0 4 5 4 10 0 6 -5 10 -11 10 -5 0
-7 -4 -4 -10z"/>
<path d="M6549 3389 c-6 -31 -4 -46 7 -42 12 5 13 27 1 39 -4 4 -7 5 -8 3z"/>
<path d="M6550 3259 c0 -5 5 -7 10 -4 6 3 10 8 10 11 0 2 -4 4 -10 4 -5 0 -10
-5 -10 -11z"/>
<path d="M6510 3040 c0 -5 5 -10 11 -10 5 0 7 5 4 10 -3 6 -8 10 -11 10 -2 0
-4 -4 -4 -10z"/>
<path d="M6475 2940 c-3 -5 -1 -10 4 -10 6 0 11 5 11 10 0 6 -2 10 -4 10 -3 0
-8 -4 -11 -10z"/>
<path d="M6440 2836 c0 -2 7 -9 15 -16 9 -7 15 -8 15 -2 0 5 -7 12 -15 16 -8
3 -15 4 -15 2z"/>
<path d="M6406 2607 c3 -10 9 -15 12 -12 3 3 0 11 -7 18 -10 9 -11 8 -5 -6z"/>
<path d="M6390 2519 c0 -5 5 -7 10 -4 6 3 10 8 10 11 0 2 -4 4 -10 4 -5 0 -10
-5 -10 -11z"/>
<path d="M6375 2460 c3 -5 8 -10 11 -10 2 0 4 5 4 10 0 6 -5 10 -11 10 -5 0
-7 -4 -4 -10z"/>
<path d="M6067 1649 c7 -7 15 -10 18 -7 3 3 -2 9 -12 12 -14 6 -15 5 -6 -5z"/>
<path d="M6021 1566 c-10 -11 -9 -14 1 -12 14 2 23 15 15 22 -2 2 -10 -2 -16
-10z"/>
<path d="M5971 1447 c-8 -10 -7 -14 2 -14 8 0 14 6 14 14 0 7 -1 13 -2 13 -2
0 -8 -6 -14 -13z"/>
<path d="M5915 1370 c-3 -5 -1 -10 4 -10 6 0 11 5 11 10 0 6 -2 10 -4 10 -3 0
-8 -4 -11 -10z"/>
<path d="M5393 645 c0 -8 4 -12 9 -9 5 3 6 10 3 15 -9 13 -12 11 -12 -6z"/>
<path d="M3387 599 c7 -7 15 -10 18 -7 3 3 -2 9 -12 12 -14 6 -15 5 -6 -5z"/>
<path d="M5345 600 c-3 -6 1 -7 9 -4 18 7 21 14 7 14 -6 0 -13 -4 -16 -10z"/>
<path d="M3556 482 c-3 -5 1 -9 9 -9 8 0 12 4 9 9 -3 4 -7 8 -9 8 -2 0 -6 -4
-9 -8z"/>
<path d="M3867 315 c-4 -8 -3 -16 1 -19 4 -3 9 4 9 15 2 23 -3 25 -10 4z"/>
<path d="M3939 291 c11 -7 11 -9 0 -14 -8 -3 -4 -4 9 -4 26 1 29 12 6 21 -23
9 -31 7 -15 -3z"/>
<path d="M4100 235 c-11 -13 -10 -14 4 -9 9 3 16 10 16 15 0 13 -6 11 -20 -6z"/>
</g>
</svg>
